<mxfile host="app.diagrams.net" modified="2024-03-19T04:30:12.285Z" agent="Mozilla/5.0" version="22.1.21">
  <diagram id="sequence-diagram" name="Sequence Diagram">
    <mxGraphModel dx="1200" dy="800" grid="1" gridSize="10" guides="1" tooltips="1" connect="1" arrows="1" fold="1" page="1" pageScale="1" pageWidth="850" pageHeight="1100">
      <root>
        <mxCell id="0"/>
        <mxCell id="1" parent="0"/>
        
        <!-- Lifelines -->
        <mxCell id="teacher" value="Giáo viên" style="shape=umlLifeline;perimeter=lifelinePerimeter;whiteSpace=wrap;html=1;container=1;collapsible=0;recursiveResize=0;outlineConnect=0;" vertex="1" parent="1">
          <mxGeometry x="100" y="40" width="100" height="500" as="geometry"/>
        </mxCell>

        <mxCell id="controller" value="ClassRoomsController" style="shape=umlLifeline;perimeter=lifelinePerimeter;whiteSpace=wrap;html=1;container=1;collapsible=0;recursiveResize=0;outlineConnect=0;" vertex="1" parent="1">
          <mxGeometry x="300" y="40" width="100" height="500" as="geometry"/>
        </mxCell>

        <!-- Messages -->
        <mxCell id="msg1" value="Create(ClassRoom)" style="endArrow=block;endSize=16;endFill=0;html=1;" edge="1" parent="1" source="teacher" target="controller">
          <mxGeometry width="160" relative="1" as="geometry">
            <mxPoint x="150" y="100" as="sourcePoint"/>
            <mxPoint x="350" y="100" as="targetPoint"/>
            <Array as="points">
              <mxPoint x="250" y="100"/>
            </Array>
          </mxGeometry>
        </mxCell>
      </root>
    </mxGraphModel>
  </diagram>
</mxfile>
